<?xml-stylesheet type="text/css" href="logo-1.css" ?>
<svg width="148" height="50" xmlns="http://www.w3.org/2000/svg">
  <g fill="#313048" fill-rule="evenodd">
    <path d="M11.2 36l5.4-5.6h11l4.2 15L11.2 36zM3.6 17l10 1.2V29.3L9 34 3.5 17zm10-1.6l-9-1.2 9-9v10.2zm20-7L25 16.7l-8.7-1v-12l17 4.5zm-17 19.2v-9l8 1 2.2 8H16.5zm23.6 0H29.8l-2.5-9 8.3-8.3 4.6 17.3zm-6 16l-3.6-13.2H40l-5.7 13.3zm9.2-15L37.7 7.2c0-.5-.5-1-1-1L15.5.4c-.5 0-1 0-1.3.2L.5 14.2c-.4.5-.5 1-.3 1.5l6.4 20.7c0 .4.4.7.7 1l26 11.8.6.2c.4 0 .7 0 1-.4 0 0 .3-.3.3-.5l8-18.6c.2-.5.3-1 0-1.4zM66.6 20.5L64.3 27H69l-2.4-6.5zm4.2 12l-1-2.6h-6.4l-1 2.5H59l5.8-15.3h4l6 15.3h-3.8zM83.4 25c0-4.8 3.5-8 8-8 3.4 0 5.3 1.8 6.4 3.7L95 22c-.6-1.2-2-2-3.5-2-2.8 0-4.8 2-4.8 5 0 2.7 2 5 4.8 5 1.5 0 3-1 3.5-2.4l2.8 1.4c-1 2-3 3.7-6.3 3.7-4.6 0-8-3.2-8-7.8M122 32.5V21.8l-4.4 10.7h-1.4L112 21.8v10.7h-3.3V17.2h4.5l3.7 9.2 3.6-9.2h4.5v15.3M137 32.5V17.2H148v3h-7.5v3h7.3v3h-7.3v3.4h7.5v3"/>
  </g>
</svg>
