<svg xmlns="http://www.w3.org/2000/svg"  viewBox="0 0 595.28 841.89">
  <path fill="#414042" d="M554 90c15.6 0 28.3 10.5 28.3 23.4v66c0 12.8-12.7 23.2-28.4 23.2H316.5L383 90h171zM357.6 239L317 206h37.4c1 11 2 22 3.2 33zM424.7 53.7l-40.7 33h37.4l3.3-33z"/>
  <path fill="#FCC112" d="M55.5 90h301.8l-66 112.6H55.4c-15.6 0-28.2-10.4-28.2-23.3v-66C27.3 100.6 40 90 55.5 90zM249.7 239l40.7-33H253l-3.3 33zM316.6 53.7l40.7 33h-37.5c-1-11-2-22-3.2-33z"/>
  <path fill="#231F20" d="M55.7 143c0 9.4 4 14 11.8 14 1.4 0 2.7 0 4-.3 1.3-.3 2.8-.7 4.6-1.4 1.6 3.2 2.5 6.5 3 9.8-1.3.6-2.4 1-3.6 1.3-1 .4-2 .6-3 .7l-3 .4H66c-3.8 0-7-.5-10-1.8-2.8-1.2-5.2-3-7-5-2-2.2-3.5-4.8-4.4-7.8-1-3-1.5-6.2-1.5-9.8 0-3.5.5-6.8 1.5-9.8 1-3 2.5-5.7 4.4-8 2-2 4.3-3.8 7.2-5 2.8-1.3 6-2 9.6-2 2 0 4 .3 6 .6s4 1 6.4 1.8c0 1.8-.5 3.6-1 5.3l-1.8 4.4-2.4-.8-2-.6c-.8 0-1.4-.2-2-.3H67c-3.6 0-6.4 1.2-8.3 3.6-2 2.4-3 6-3 10.7zM84.7 132.6c2-.2 4.2-.5 6.4-.6l6.4-.3c5.4 0 9.4 1 12 3 2.7 2 4 4.8 4 8.5 0 1.3 0 2.5-.4 3.5l-1 2.6c-.6.8-1 1.4-1.5 1.8l-1.2 1.2 7.6 14.4-3 .4H107c-1.2 0-2-.2-3-.4L97 151l1-.6c1.5-.8 2.5-1.8 3-2.8.7-1 1-2 1-3.2s-.4-2-1-2.8c-.8-.7-2-1-3.4-1h-2v26c-1 .3-2 .4-3 .5-1 .2-1.7.2-2.4.2h-2.5l-3-.5v-34zM134.6 140c-1.4 0-2.6.6-3.6 1.4-1 1-1.7 2.3-1.8 4h10.6c0-1.4-.6-2.7-1.5-3.7-.8-1-2-1.6-3.7-1.6zm-5.3 13.2c.5 1.8 1.3 3 2.6 3.8 1 .8 2.7 1 4.7 1 1.2 0 2.7 0 4.3-.3 1.6-.3 3-.8 4.7-1.4.6 1 1 2.5 1.6 4 .5 1.7.7 3.3.8 5-4 1.5-8 2.2-12 2.2-3.2 0-6-.4-8.2-1.3-2.3-1-4-2-5.6-3.7-1.4-1.5-2.4-3.4-3-5.6-.8-2.2-1.2-4.6-1.2-7.2 0-2.5.4-4.8 1-7 .8-2.2 2-4.2 3.3-5.8 1.4-1.6 3.2-3 5.3-4 2-.8 4.6-1.3 7.4-1.3 2.3 0 4.4.4 6.3 1.2 1.8.7 3.4 1.8 4.6 3.2 1.2 1.4 2.2 3 3 5 .6 2 1 4 1 6.4 0 1.2 0 2.3-.3 3.2 0 1-.2 1.7-.3 2.4h-20zM169.3 159.3c.3 0 1 0 1.7-.2h1.6v-7.4H169c-1.7 0-3 .3-4 1-1 .6-1.6 1.6-1.6 2.7 0 1 .2 1.6.6 2 .3.6.8 1 1.4 1.3.6.3 1.3.4 2 .5l1.8.3zm-15.7-3.8c0-2 .5-4 1.4-5.3 1-1.4 2-2.6 3.6-3.4 1.4-.8 3-1.4 4.8-1.8 1.8-.3 3.5-.5 5.2-.5h4c0-.7-.2-1.4-.6-2-.4-.5-1-1-1.6-1.2-.6-.3-1.3-.5-2-.6H166c-1 0-2.2 0-3.6.2-1.5.2-3 .6-4.4 1-.4-.7-.8-1.3-1-2l-.7-1.8c-.2-.7-.3-1.3-.3-2v-2.4c2-.7 4-1.2 6.2-1.6 2-.3 4-.5 5.7-.5 2.2 0 4.2.3 6 .8 2 .6 3.5 1.4 4.8 2.6 1.3 1.2 2.3 2.7 3 4.5.7 1.8 1 4 1 6.4v19.3c-1.6.5-3.6 1-6 1.4-2.4.5-5 .8-7.5.8-2.3 0-4.5-.2-6.4-.7-2-.4-3.6-1-5-2s-2.5-2-3.2-3.7c-.8-1.4-1.2-3.2-1.2-5.5zM196.6 141.8h-9.8c-.2-1-.4-1.7-.4-2.5V137v-2c0-.8.2-1.6.4-2.5h30.8c.2 1 .4 1.7.4 2.4v4.3c0 .8-.2 1.6-.4 2.5h-9.8v25l-3 .3c-1 .2-2 .2-2.6.2h-2.5l-3-.5v-25zM234 166.7c-1 0-2 .3-3 .4-1 .2-1.8.2-2.6.2H226l-3.2-.5v-34.2l3-.5h5.4c1 0 2 .3 2.8.5v34.2zM262.3 132.5l2.2-.3h7.4c1.2 0 2 .2 2.6.3l-13 34c-1 .3-2 .5-2.8.5h-5.5c-1 0-1.8-.2-2.5-.4l-12.7-34c.6-.2 1.4-.3 2.7-.4h7.5c1.2 0 2 .2 2.3.3l6 20.5 3-10.3 2.8-10.2zM292.5 140c-1.4 0-2.6.6-3.6 1.4-1 1-1.7 2.3-2 4h10.7c0-1.4-.6-2.7-1.4-3.7-1-1-2-1.6-3.8-1.6zm-5.3 13.2c.5 1.8 1.4 3 2.6 3.8 1.2.8 2.8 1 4.8 1 1.3 0 2.7 0 4.3-.3 1.5-.3 3-.8 4.6-1.4.6 1 1.2 2.5 1.6 4 .5 1.7.7 3.3.8 5-4 1.5-8 2.2-12 2.2-3.3 0-6-.4-8.3-1.3-2.2-1-4-2-5.5-3.7-1.5-1.5-2.5-3.4-3.2-5.6-.7-2.2-1-4.6-1-7.2 0-2.5.3-4.8 1-7s1.8-4.2 3.2-5.8c1.4-1.6 3.2-3 5.3-4 2-.8 4.6-1.3 7.4-1.3 2.3 0 4.4.4 6.2 1.2 1.8.7 3.4 1.8 4.7 3.2 1 1.4 2 3 2.8 5 .7 2 1 4 1 6.4v3.2l-.4 2.4h-20.2z"/>
  <path fill="#FFF" d="M390.4 137.7l5 2.2c1.4.7 2.7 1.6 3.8 2.7 1 1 2 2.4 2.4 4 .6 1.5 1 3.3 1 5.5 0 2.3-.5 4.4-1.3 6.3-1 2-2 3.5-3.6 4.8-1.6 1.4-3.6 2.4-6 3-2.2 1-5 1.2-8 1.2-2.6 0-5-.2-7-.6-2.2-.6-4.5-1.3-7-2.2l1-5c.4-1.7 1-3.4 1.6-5.3 4 1.8 7.6 2.7 10.6 2.7 2 0 4-.3 5-1 1.4-.7 2-2 2-3.6 0-.7 0-1.3-.4-1.8-.2-.5-.6-1-1-1.3l-1.5-1c-.5 0-1-.4-1.6-.6l-3.7-1.5c-1.6-.5-3-1.2-4.3-2-1.4-.8-2.5-1.8-3.4-2.8-1-1-1.6-2.4-2-3.8-.7-1.5-1-3-1-5 0-2.4.5-4.5 1.3-6.3.8-1.8 2-3.3 3.3-4.6 1.5-1 3.2-2 5.2-2.7 2-.7 4.3-1 7-1 2 0 4.3.2 6.4.7 2 .4 4.3 1 6.7 2l-1 4.6c-.5 1.7-1 3.3-1.8 4.8l-4-1.6c-1.6-.5-3.5-.7-5.8-.7-.7 0-1.4 0-2 .2l-1.8.7c-.5.2-1 .6-1.2 1-.3.6-.4 1.2-.4 2 0 1.2.4 2.2 1.2 2.8.8.6 1.8 1.2 3 1.6l3.2 1.3zM414.5 141.8h-9.8l-.4-2.5V137v-2c0-.8.2-1.6.4-2.5h30.8l.5 2.4v4.3c0 .8-.2 1.6-.5 2.5h-9.8v25l-3 .3c-1 .2-1.8.2-2.6.2h-2.4l-3-.5v-25zM470.8 165l-2.7 1-3.2.7-3.6.6-3.7.2c-2.2 0-4.4-.2-6.5-.6-2-.4-3.8-1-5.4-2.2-1.6-1-2.8-2.7-3.8-4.7s-1.3-4.7-1.3-8.2v-19.3l2.8-.5h5.6c1 0 2 .3 2.8.5V151c0 2.6.5 4.4 1.4 5.3 1 1 2.2 1.5 4 1.5h1.7l1-.2v-25c1-.3 1.8-.5 2.8-.6h5.4c1 0 2 .3 2.8.5V165zM489.4 158h.7c.4.2.8.2 1.4.2 2.5 0 4.3-.7 5.5-2 1-1.5 1.7-3.8 1.7-7 0-2.8-.6-4.8-1.7-6-1.2-1.4-3-2-5-2h-2.6v17zm.5-26.3c3.5 0 6.6.4 9 1.3 2.6.8 4.7 2 6.4 3.5 1.6 1.5 2.8 3.4 3.5 5.5.7 2.2 1 4.6 1 7.3s-.3 5.3-1 7.5c-1 2.3-2 4.2-3.7 5.8-1.7 1.6-3.8 2.8-6.5 3.6-2.6 1-5.8 1.3-9.5 1.3-2 0-4 0-5.8-.2l-5.3-.6v-34l6-.7 5.7-.3zM527 166.7c-1 0-2.2.3-3 .4-1 .2-1.8.2-2.6.2H519l-3.2-.5v-34.2l3-.5h5.4c1 0 2 .3 2.8.5v34.2zM555.6 149.8c0-2.8-.5-5-1.4-6.5-1-1.5-2.4-2.3-4.4-2.3s-3.4.8-4.3 2.3c-1 1.5-1.4 3.7-1.4 6.5s.6 5 1.5 6.4c1 1.5 2.4 2.3 4.3 2.3s3.4-.8 4.4-2.3c1-1.5 1.4-3.6 1.4-6.4zm-22.8 0c0-2.7.4-5.2 1-7.4.8-2.2 2-4 3.3-5.7 1.6-1.6 3.3-3 5.5-3.7 2-1 4.5-1.3 7.3-1.3s5.3.4 7.4 1.3c2.2.8 4 2 5.4 3.7 1.4 1.6 2.5 3.5 3.2 5.7.7 2.2 1 4.7 1 7.4 0 2.6-.3 5-1 7.2s-1.8 4-3.2 5.7c-1.5 1.5-3.2 2.7-5.4 3.6-2 .8-4.6 1.2-7.4 1.2-2.8 0-5.2-.4-7.3-1.2-2.2-1-4-2-5.4-3.6-1.3-1.6-2.4-3.5-3-5.7-.8-2.2-1.2-4.6-1.2-7.2z"/>
</svg>
